<?xml version="1.0" encoding="utf-8"?>
<!-- Generator: Adobe Illustrator 24.1.2, SVG Export Plug-In . SVG Version: 6.00 Build 0)  -->
<svg version="1.1" id="Layer_1" xmlns="http://www.w3.org/2000/svg" xmlns:xlink="http://www.w3.org/1999/xlink" x="0px" y="0px"
	 viewBox="0 0 540 30" style="enable-background:new 0 0 540 30;" xml:space="preserve">
<g>
	<path d="M18.6,7.9c-0.4-2.9-2.9-4-5.6-4c-6,0-7.9,5.5-7.9,10.3S6.9,24.5,13,24.5c2.6,0,5.2-1.3,5.8-4.2h2.3c-0.7,4-4.3,6.2-8.1,6.2
		c-7.2,0-10.2-5.7-10.2-12.3c0-6.5,3-12.3,10.2-12.3c3.9,0,7.5,1.8,7.8,6C20.8,7.9,18.6,7.9,18.6,7.9z"/>
	<path d="M35.4,26.5c-6.8,0-10.5-4.9-10.5-12.3c0-7.3,3.8-12.3,10.5-12.3s10.5,4.9,10.5,12.3C45.9,21.5,42.2,26.5,35.4,26.5z
		 M35.4,24.5c5.9,0,8.2-5.2,8.2-10.3S41.3,3.9,35.4,3.9S27.2,9,27.2,14.2S29.6,24.5,35.4,24.5z"/>
	<path d="M53.6,26h-2.1V2.4h7.7c2.1,0,3.8,0.1,5.6,1.2c1.6,1,2.4,2.7,2.4,4.9c0,2.5-1.8,4.4-4.5,5.1v0.1c3,0.5,3.7,2.5,4,5.3
		c0.4,3.8,0.3,5.6,1.2,7h-2.4c-0.6-1.6-0.7-3.2-0.8-4.9c-0.5-5.4-0.8-6.3-5.1-6.3h-5.8V26H53.6z M58.2,12.8c3,0,6.7-0.2,6.7-4.2
		c0-4.5-4.2-4.2-6.5-4.2h-4.8v8.4H58.2z"/>
	<path d="M73.3,26V2.4h14v2H75.4v8.5h11.4v2H75.4V24h12.4v2H73.3z"/>
	<path d="M107,9.1c3.1,0,5.7,1.1,6,4.5h-2.1c-0.2-2.1-2-2.7-4-2.7c-1.8,0-3.7,0.7-3.7,2.6c0,2.4,3.2,2.2,7.6,3.8
		c1.7,0.6,2.8,2.1,2.8,3.8c0,3.7-3.4,5.4-6.9,5.4c-2.8,0-6.1-1.3-6.2-5h2.1c0.2,2.5,2.3,3.2,4.5,3.2c2.1,0,4.3-1,4.3-3.3
		c0-2.4-2.6-2.7-5.2-3.3c-2.6-0.6-5.2-1.4-5.2-4.4C101,10.3,104.1,9.1,107,9.1z"/>
	<path d="M119.3,11.4H116V9.6h3.3V6.1l2-0.8v4.3h3.7v1.8h-3.7v11c0,1.5,0.8,2.3,2.3,2.3c0.6,0,1.2,0,1.7-0.2v1.7
		c-0.6,0.2-1.3,0.3-2,0.3c-4.1,0-3.9-2.6-3.9-4.9L119.3,11.4L119.3,11.4z"/>
	<path d="M138.9,9.6h2v12.7c0,1.3,0.1,2.6,0.2,3.7h-2l-0.1-2.4l-0.1-0.1c-1.1,2-3,3-5.1,3c-5.4,0-5.8-4.7-5.8-6.6V9.6h2v10.6
		c0,2.8,1.6,4.5,4.3,4.5c3.2,0,4.7-2.7,4.7-5.7L138.9,9.6L138.9,9.6z"/>
	<path d="M157.4,23.6l-0.1-0.1c-1.3,2-3.3,3-5.6,3c-4.9,0-6.7-4.6-6.7-8.8s1.9-8.6,6.7-8.6c2.2,0,4.5,1,5.6,3l0.1-0.1V2.4h2v19.9
		c0,1.3,0.1,2.6,0.2,3.7h-2L157.4,23.6z M152.1,10.9c-3.7,0-4.9,3.5-4.9,6.6c0,3,0.9,7.2,4.6,7.2c4.3,0,5.6-3.6,5.6-7.3
		C157.3,14.1,155.9,10.9,152.1,10.9z"/>
	<path d="M166.4,4.9h-2.3V2.4h2.3V4.9z M166.3,9.6V26h-2V9.6H166.3z"/>
	<path d="M185.6,17.8c0,4.3-2.4,8.7-7.6,8.7c-5.2,0-7.6-4.4-7.6-8.7s2.4-8.7,7.6-8.7C183.2,9.1,185.6,13.5,185.6,17.8z M178,10.9
		c-4,0-5.5,3.9-5.5,6.9s1.6,6.9,5.5,6.9c4,0,5.5-3.9,5.5-6.9S181.9,10.9,178,10.9z"/>
	<path d="M207.9-1.4h2v32.7h-2V-1.4z"/>
	<path d="M230.9,2.9h20.4v8.2h-4.9V7.6h-2.3v13.7h2.1V26H236v-4.7h2.1V7.6h-2.3v3.6h-4.9L230.9,2.9L230.9,2.9z"/>
	<path d="M259.8,2.9v8c0.7-0.9,1.8-2.3,4.7-2.3c1.9,0,3.1,0.7,3.8,1.3c1.1,1.2,1.2,2.7,1.2,4v7.3h1.4V26h-7.5V15.8
		c0-0.8-0.1-2.1-1.8-2.1c-0.3,0-0.9,0-1.4,0.5s-0.5,1-0.5,1.6v5.5h1.3V26h-8.8v-4.7h1.4V7.6h-1.4V2.9H259.8z"/>
	<path d="M276.2,9.8c1.6-0.8,3.2-1,4.7-1c5.8,0,8.6,3.5,8.6,8.9c0,1.3-0.2,2.5-0.6,3.8c-0.8,2.5-2.3,3.6-3.6,4.2
		c-1.4,0.6-3,0.8-4.4,0.8c-0.8,0-1.6-0.1-2.3-0.2c-1.4-0.3-2.7-0.7-3.9-1.9c-2.3-2.3-2.4-5.5-2.4-7C272.3,16,272.3,11.8,276.2,9.8z
		 M280.9,13.3c-0.6,0-1.1,0.2-1.5,0.6c-1,1-1,2.7-1,3.7c0,0.9,0,2,0.5,2.9c0.3,0.6,0.8,1.3,2,1.3c2.4,0,2.4-3.1,2.4-4.3
		C283.3,16.4,283.3,13.3,280.9,13.3z"/>
	<path d="M298,12c0.3-0.9,0.9-3.1,4.1-3.1c0.7,0,1.1,0.1,1.6,0.2v5.4c-0.5-0.1-0.8-0.2-1.4-0.2c-1.2,0-2.3,0.4-2.9,1
		c-0.8,0.8-0.8,1.7-0.8,3.2l-0.1,2.7h2V26h-9.3v-4.7h1.4v-7.5h-1.4V9.1h6.6L298,12z"/>
	<path d="M322.2,21.3h1.4V26h-7.5V16c0-0.6,0-0.9-0.1-1.2c-0.3-0.7-0.9-0.9-1.4-0.9s-0.9,0.2-1.2,0.5c-0.6,0.6-0.6,1.3-0.7,2.3v4.6
		h1.1V26h-8.6v-4.7h1.4v-7.5h-1.4V9.1h6.7l0.2,2.6c0.3-0.5,0.5-0.9,1-1.4c0.9-0.9,2.4-1.7,4.3-1.7c1.8,0,2.9,0.7,3.6,1.3
		c1.1,1.1,1.1,2.5,1.2,3.7V21.3z"/>
	<path d="M331.7,3.8v5.3h2.7v4.7h-2.7v6.1c0,0.6,0.1,1.9,1.7,1.9c0.4,0,0.6-0.1,0.9-0.2v4.3c-1.1,0.2-2.3,0.4-3.6,0.4
		c-1.9,0-3.3-0.5-4-1.2c-0.9-0.9-0.9-2.1-0.9-3.1v-8.2h-1.5V9.1h1.9v-4L331.7,3.8z"/>
	<path d="M339.8,9.8c1.6-0.8,3.2-1,4.7-1c5.8,0,8.6,3.5,8.6,8.9c0,1.3-0.2,2.5-0.6,3.8c-0.8,2.5-2.3,3.6-3.6,4.2
		c-1.4,0.6-3,0.8-4.4,0.8c-0.8,0-1.6-0.1-2.3-0.2c-1.4-0.3-2.7-0.7-3.9-1.9c-2.3-2.3-2.4-5.5-2.4-7C335.9,16,335.9,11.8,339.8,9.8z
		 M344.5,13.3c-0.6,0-1.1,0.2-1.5,0.6c-1,1-1,2.7-1,3.7c0,0.9,0,2,0.5,2.9c0.3,0.6,0.8,1.3,2,1.3c2.4,0,2.4-3.1,2.4-4.3
		C346.9,16.4,346.9,13.3,344.5,13.3z"/>
	<path d="M371.8,21.3h1.4V26h-7.5V16c0-0.6,0-0.9-0.1-1.2c-0.3-0.7-0.9-0.9-1.4-0.9s-0.9,0.2-1.2,0.5c-0.6,0.6-0.6,1.3-0.7,2.3v4.6
		h1.1V26h-8.6v-4.7h1.4v-7.5h-1.4V9.1h6.7l0.2,2.6c0.3-0.5,0.5-0.9,1-1.4c0.9-0.9,2.4-1.7,4.3-1.7c1.8,0,2.9,0.7,3.6,1.3
		c1.1,1.1,1.1,2.5,1.2,3.7V21.3z"/>
	<path d="M383.6,2.9H404v8.2h-4.9V7.6h-2.3v13.7h2.1V26h-10.3v-4.7h2.1V7.6h-2.3v3.6h-4.9L383.6,2.9L383.6,2.9z"/>
	<path d="M407.2,9.8c1.6-0.8,3.2-1,4.7-1c5.8,0,8.6,3.5,8.6,8.9c0,1.3-0.2,2.5-0.6,3.8c-0.8,2.5-2.3,3.6-3.6,4.2
		c-1.4,0.6-3,0.8-4.4,0.8c-0.8,0-1.6-0.1-2.3-0.2c-1.4-0.3-2.7-0.7-3.9-1.9c-2.3-2.3-2.4-5.5-2.4-7C403.3,16,403.3,11.8,407.2,9.8z
		 M411.9,13.3c-0.6,0-1.1,0.2-1.5,0.6c-1,1-1,2.7-1,3.7c0,0.9,0,2,0.5,2.9c0.3,0.6,0.8,1.3,2,1.3c2.4,0,2.4-3.1,2.4-4.3
		C414.3,16.4,414.3,13.3,411.9,13.3z"/>
	<path d="M429.4,11.3c0.6-1.1,2-2.6,4.7-2.6c0.8,0,2.2,0.1,3.3,1.2c0.6,0.6,0.7,1,0.9,1.4c0.2-0.4,0.4-0.8,0.8-1.2
		c0.9-0.9,2.3-1.4,3.9-1.4c1.5,0,2.6,0.5,3.2,1.1c1,1,1.1,2.4,1.1,3.4v8.1h1.4V26h-7.5V15.7c0-0.8,0-1.9-1.2-1.9
		c-0.3,0-0.7,0.1-1,0.4c-0.5,0.5-0.5,1.1-0.5,1.9v5.2h1.1V26h-7.1V16c0-1,0-2.2-1.3-2.2c-0.4,0-0.7,0.2-1,0.4
		c-0.5,0.5-0.5,1.4-0.5,2.3v4.8h1.1V26h-8.6v-4.7h1.4v-7.5h-1.4V9.1h7L429.4,11.3z"/>
	<path d="M467,21.3V26h-7l-0.1-2c-0.5,0.7-1.7,2.4-4.7,2.4s-4.9-1.8-4.9-5.1c0-0.8,0.1-3,2.3-4.5c2.2-1.5,5.5-1.3,7.2-1.3
		c0-1.4,0-1.5-0.1-1.8c-0.3-1.2-1.3-1.2-1.5-1.2c-0.5,0-0.9,0.2-1.1,0.5c-0.5,0.5-0.5,1.1-0.5,1.6h-5.7c0.1-0.8,0.1-1.8,0.6-2.7
		c1.2-2.4,4.3-3.2,6.6-3.2c2.2,0,4.8,0.7,6.2,2.1c1.3,1.3,1.4,2.8,1.4,4v6.6h1.3V21.3z M459.7,18.5c-0.6,0-1.2-0.1-1.8,0.1
		c-1.2,0.4-1.5,1.3-1.5,2.1c0,1.1,0.6,1.8,1.5,1.8c0.4,0,1-0.1,1.5-0.8c0.3-0.5,0.4-1.1,0.4-1.5v-1.7H459.7z"/>
	<path d="M472.9,19.8c0.1,2,1.6,2.7,2.7,2.7s1.7-0.7,1.7-1.3c0-0.8-0.7-1-1-1.1c-0.8-0.3-1.6-0.5-2.4-0.7c-2-0.6-5.6-1.5-5.6-5.6
		c0-2.4,1.7-5.2,5.8-5.2c2.7,0,3.6,1.2,4.2,1.8l0.1-1.3h4.5v6h-4.6c-0.1-0.8-0.4-2.5-2.3-2.5c-0.9,0-1.7,0.5-1.7,1.2
		c0,0.3,0.1,0.6,0.3,0.7c0.3,0.3,0.6,0.4,2.4,0.9c4,1.1,6.3,1.9,6.3,5.7c0,0.8-0.1,2.4-1.3,3.6c-0.3,0.3-1.5,1.6-4.5,1.6
		c-2.7,0-3.9-1.2-4.4-1.7L473,26h-4.6v-6.2H472.9z"/>
	<path d="M501.2,20.2c-0.2,1.2-0.5,2.8-2,4.2c-1.5,1.4-3.7,2-5.8,2c-4.5,0-8.5-2.2-8.5-8.8c0-0.9,0.1-2.2,0.5-3.4
		c1.1-3.9,4.3-5.5,7.8-5.5c2.6,0,4.7,0.9,5.9,2.2c2.5,2.4,2.4,6.3,2.3,7.8h-10.3c0,1.3,0,3.6,2.2,3.6c1.8,0,2-1.5,2.1-2.1
		C495.4,20.2,501.2,20.2,501.2,20.2z M495.4,15.5c0-0.4,0-0.9-0.2-1.3c-0.3-0.9-1.1-1.2-1.9-1.2c-2,0-2,1.9-2,2.6h4.1V15.5z"/>
	<path d="M509.9,3.8v5.3h2.7v4.7h-2.7v6.1c0,0.6,0.1,1.9,1.7,1.9c0.4,0,0.6-0.1,0.9-0.2v4.3c-1.1,0.2-2.3,0.4-3.6,0.4
		c-1.9,0-3.3-0.5-4-1.2C504,24.2,504,23,504,22v-8.2h-1.5V9.1h1.9v-4L509.9,3.8z"/>
	<path d="M520.8,3.8v5.3h2.7v4.7h-2.7v6.1c0,0.6,0.1,1.9,1.7,1.9c0.4,0,0.6-0.1,0.9-0.2v4.3c-1.1,0.2-2.3,0.4-3.6,0.4
		c-1.9,0-3.3-0.5-4-1.2c-0.9-0.9-0.9-2.1-0.9-3.1v-8.2h-1.5V9.1h1.9v-4L520.8,3.8z"/>
	<path d="M532.4,9.1v12.2h1.4V26h-8.9v-4.7h1.4v-7.5h-1.4V9.1H532.4z M525.8,7.3V2.9h6.6v4.4H525.8z"/>
</g>
</svg>
