<?xml version="1.0" encoding="utf-8"?>
<!-- Generator: Adobe Illustrator 23.0.2, SVG Export Plug-In . SVG Version: 6.00 Build 0)  -->
<svg version="1.1" id="Layer_1" focusable="false" xmlns="http://www.w3.org/2000/svg" xmlns:xlink="http://www.w3.org/1999/xlink"
	 x="0px" y="0px" viewBox="0 0 512 512" style="enable-background:new 0 0 512 512;" xml:space="preserve">
<path d="M256,63C149.4,63,63,149.4,63,256c0,106.6,86.4,193,193,193s193-86.4,193-193C449,149.4,362.6,63,256,63z M256,148.6
	c18.1,0,32.7,14.6,32.7,32.7S274.1,214,256,214s-32.7-14.6-32.7-32.7S237.9,148.6,256,148.6z M299.6,346.3c0,5.2-4.2,9.3-9.3,9.3
	h-68.5c-5.2,0-9.3-4.2-9.3-9.3v-18.7c0-5.2,4.2-9.3,9.3-9.3h9.3v-49.8h-9.3c-5.2,0-9.3-4.2-9.3-9.3v-18.7c0-5.2,4.2-9.3,9.3-9.3
	h49.8c5.2,0,9.3,4.2,9.3,9.3v77.8h9.3c5.2,0,9.3,4.2,9.3,9.3V346.3z"/>
</svg>
